# xmcd CD database file generated by Grip 3.3.1
# 
# Track frame offsets:
#       150
#       106604
#       185483
#       203771
#       219642
#       241630
#       266813
# 
# Disc length: 3936 seconds
# 
# Revision: 1
# Processed by: cddbd v1.5.2PL0 Copyright (c) Steve Scherf et al.
# Submitted via: Grip 3.3.1
# 
DISCID=5b0f5e07
DTITLE=R. Murray Schafer, Molinari Quartet - String Quartets 8-12 CD 1
DYEAR=2013
DGENRE=Classical
TTITLE0=String Quartet No.9 (2005) (with prerecorde children voices)
TTITLE1=String Quartet No.10 (2005) (R.M. Schafer narrator)
TTITLE2=I. - String Quartet No.11 (2006)
TTITLE3=II. - String Quartet No.11 (2006)
TTITLE4=III. - String Quartet No.11 (2006)
TTITLE5=IV. - String Quartet No.11 (2006)
TTITLE6=V. - String Quartet No.11 (2006) (prerecorded aeolian harp)
EXTD=
EXTT0=
EXTT1=
EXTT2=
EXTT3=
EXTT4=
EXTT5=
EXTT6=
PLAYORDER=
